<svg width="25" height="29" viewBox="0 0 25 29" fill="none" xmlns="http://www.w3.org/2000/svg">
<path fill-rule="evenodd" clip-rule="evenodd" d="M23.3735 0.761852C22.6621 1.18081 20.5122 2.45298 18.5958 3.58886C16.6795 4.72474 14.4848 6.02244 13.7188 6.47265L12.326 7.29128L12.0558 7.13955C11.9073 7.05613 10.9661 6.50109 9.96441 5.90613C8.96269 5.31123 7.83427 4.64163 7.45681 4.41822C7.07935 4.19481 5.99844 3.5527 5.05479 2.99132C0.7404 0.424672 0.0699993 0.0297637 0.027027 0.0297637C0.00137029 0.0297637 -0.00749808 1.51043 0.00686122 3.39997C0.0209566 5.25361 0.0346299 10.0532 0.0371638 14.0657L0.0418086 21.3612L1.63764 22.4376C5.60277 25.1123 9.11715 27.4672 9.1436 27.4672C9.15954 27.4672 9.17253 25.04 9.17253 22.0733V16.6794L9.31771 16.7833C9.39753 16.8405 10.3214 17.4446 11.3707 18.1257L13.2784 19.3643L16.7962 17.3626C19.0967 16.0536 20.3648 15.3609 20.4608 15.3609C20.6923 15.3609 21.1355 15.6119 21.3651 15.873C21.9416 16.529 22.0041 17.8153 21.5074 18.8038C21.271 19.2744 20.9074 19.7364 20.5669 19.9989C20.4119 20.1184 19.038 20.9939 17.5136 21.9446C15.9892 22.8953 14.1655 24.0331 13.4609 24.4732L12.1797 25.2733L12.1939 27.1365C12.2017 28.1612 12.2226 28.9998 12.2404 29C12.2581 29.0002 12.7808 28.6761 13.4018 28.2798C14.0228 27.8835 16.0513 26.6084 17.9095 25.4462C21.8234 22.9985 22.2152 22.7451 22.7136 22.3379C24.1552 21.16 24.8698 19.6168 24.9896 17.4227C25.0485 16.3449 24.8556 15.3761 24.4439 14.6807C24.1921 14.2555 23.6751 13.7346 23.3109 13.5392C23.1565 13.4564 23.0222 13.3822 23.0124 13.3744C23.0025 13.3665 23.1223 13.209 23.2786 13.0245C24.026 12.1423 24.4905 11.1428 24.638 10.0995C24.6798 9.80415 24.693 8.22801 24.6822 4.83888L24.6669 0L23.3735 0.761852ZM3.32481 13.1273L3.33906 20.3039L4.57967 21.1396C5.262 21.5993 5.86208 21.9987 5.91313 22.0272C6.00155 22.0766 6.00535 21.8111 5.99232 16.4996C5.98482 13.4309 5.99675 10.9202 6.01892 10.9202C6.04104 10.9202 6.72997 11.3447 7.54988 11.8635C8.36973 12.3823 9.93558 13.3688 11.0295 14.0556C12.1235 14.7424 13.145 15.3851 13.2996 15.4837L13.5806 15.663L16.9593 13.7404C20.2624 11.861 20.3463 11.8092 20.7116 11.4275C21.3378 10.7733 21.6182 10.0738 21.6674 9.04341C21.7099 8.15426 21.5181 7.50396 21.0656 7.00236C20.8695 6.78493 20.5444 6.58514 20.3868 6.58514C20.3387 6.58514 19.4053 7.1285 18.3126 7.79266C16.7897 8.71818 12.5775 11.2429 12.3277 11.3799C12.2713 11.4108 10.1375 10.1254 5.14121 7.05084C4.15797 6.44579 3.34387 5.95075 3.33204 5.95075C3.32022 5.95075 3.31694 9.18018 3.32481 13.1273Z" fill="#E5C07B"/>
</svg>
